<?xml version="1.0" encoding="UTF-8"?>
<svg id="Layer_1" data-name="Layer 1" xmlns="http://www.w3.org/2000/svg" viewBox="0 0 1920 1080">
  <defs>
    <style>
      .cls-1 {
        fill: #e8d3a2;
      }

      .cls-2 {
        fill: none;
        stroke: #fff;
        stroke-miterlimit: 10;
        stroke-width: 3px;
      }

      .cls-3 {
        fill: #4d4d4d;
      }

      .cls-4 {
        fill: #57358e;
      }

      .cls-5 {
        fill: #33006f;
      }
    </style>
  </defs>
  <circle cx="966.44" cy="526.94" r="58.42"/>
  <rect x="908.02" y="526.94" width="116.85" height="116.85"/>
  <path class="cls-2" d="M1008.69,518.8c0,14.72-11.94,26.66-26.66,26.66s-26.66-11.94-26.66-26.66"/>
  <path class="cls-3" d="M920.75,506.42v41.04c0,4.16-3.38,7.55-7.55,7.55h-32.42c-15.51,0-28.07-12.57-28.07-28.07s12.56-28.07,28.07-28.07h32.42c4.17,0,7.55,3.38,7.55,7.54Z"/>
  <g>
    <ellipse class="cls-4" cx="1027.73" cy="487.1" rx="8.39" ry="40.46" transform="translate(331.03 1386.05) rotate(-77.58)"/>
    <path class="cls-5" d="M1027.17,495.34l-104.92-12.58c3.47-28.97,29.78-49.64,58.75-46.17,28.97,3.47,49.64,29.78,46.17,58.75Z"/>
    <g id="CDcPmI.tif">
      <polygon class="cls-1" points="962.16 450.87 961.63 455.82 958 455.44 960.08 470.34 967.36 451.46 972.45 451.98 975.21 472 980.68 457.87 977.18 457.49 977.71 452.54 988.64 453.71 988.11 458.66 984.9 458.32 976.54 480.35 968.64 479.5 966.6 464.9 961.27 478.71 953.46 477.83 950.23 454.6 946.98 454.25 947.52 449.3 962.16 450.87"/>
    </g>
  </g>
</svg>