<?xml version="1.0" encoding="UTF-8"?>
<svg id="Layer_1" data-name="Layer 1" xmlns="http://www.w3.org/2000/svg" viewBox="0 0 1920 1080">
  <path d="M90.31,350.15h269.72v61.77h-198.69v96.77h179.64v61.77h-179.64v140.01h-71.04v-360.32Z" fill="#639"/>
  <path d="M414.85,697.34c-9.1-8.75-13.64-20.33-13.64-34.75v-312.45h71.04v298.55h195.6v61.77h-216.71c-15.1,0-27.2-4.37-36.29-13.13Z" fill="#639"/>
  <path d="M1115.93,697.6c-20.08-11.32-35.6-27.36-46.59-48.13-10.99-20.76-16.47-44.69-16.47-71.81v-94.71c0-27.1,5.57-51.04,16.73-71.81,11.15-20.76,26.94-36.8,47.36-48.13,20.41-11.32,44.01-16.99,70.78-16.99h54.56c25.74,0,48.39,5.49,67.94,16.47,19.56,10.99,34.75,26.34,45.56,46.07,10.81,19.74,16.22,42.64,16.22,68.72h-70.01c0-20.59-5.49-37.14-16.47-49.67-10.99-12.52-25.4-18.79-43.24-18.79h-54.56c-19.22,0-34.66,7.13-46.33,21.36-11.67,14.24-17.5,32.86-17.5,55.85v88.54c0,22.99,5.67,41.61,16.99,55.85,11.32,14.24,26.25,21.36,44.78,21.36h55.59c18.19,0,33.02-7.03,44.52-21.11,11.5-14.07,17.25-32.6,17.25-55.59h70.01c0,27.8-5.49,52.25-16.47,73.35-10.99,21.11-26.43,37.41-46.33,48.9-19.9,11.5-42.9,17.24-68.97,17.24h-55.59c-26.43,0-49.67-5.66-69.75-16.99Z" fill="#639"/>
  <path d="M1641.74,710.47l-118.91-151.33-34.49,37.06v114.27h-71.04v-360.32h71.04v155.45l143.1-155.45h87.5l-148.24,158.03,157.51,202.29h-86.48Z" fill="#639"/>
  <g>
    <path d="M1815.11,701.11c-5.47,6.05-13.07,9.08-22.78,9.08h-23.13c-10.79,0-19.23-3.37-25.32-10.12-6.09-6.75-9.14-16.13-9.14-28.16v-22.9c0-10.71,2.54-19.08,7.63-25.09,5.09-6.01,12.18-9.02,21.28-9.02h17.23c6.55,0,11.66,1.56,15.32,4.68,3.66,3.12,5.49,7.5,5.49,13.12v3.7c0,2.31-.54,4.45-1.62,6.42-1.08,1.97-2.54,3.53-4.39,4.68v.12c2.24,1.62,3.99,3.62,5.26,6.01,1.27,2.39,1.91,4.9,1.91,7.52v6.01c0,6.09-1.69,10.83-5.09,14.22-3.39,3.39-8.09,5.09-14.11,5.09h-7.75c-6.32,0-11.25-1.73-14.8-5.2-3.55-3.47-5.32-8.29-5.32-14.46v-5.32c0-1.85.37-3.58,1.1-5.2.73-1.62,1.75-2.97,3.06-4.05h-3.47v-12.72h28.79c1.39,0,2.49-.33,3.3-.98.81-.65,1.21-1.6,1.21-2.83v-2.31c0-1.31-.64-2.33-1.91-3.06-1.27-.73-3.06-1.1-5.38-1.1h-18.85c-5.09,0-9.06,1.75-11.91,5.26-2.85,3.51-4.28,8.35-4.28,14.51v22.9c0,7.4,1.91,13.17,5.72,17.29,3.82,4.12,9.16,6.19,16.02,6.19h23.13c5.71,0,10.18-1.73,13.41-5.2,3.24-3.47,4.86-8.25,4.86-14.34v-20.35c0-4.16-.44-8.04-1.33-11.62-.89-3.58-2.14-6.49-3.76-8.73l10.29-6.82c2.39,2.7,4.24,6.48,5.55,11.33,1.31,4.86,1.97,10.25,1.97,16.19v20c0,10.79-2.74,19.22-8.21,25.27ZM1790.83,660.92c0-2.08-.79-3.78-2.37-5.09-1.58-1.31-3.8-2.12-6.65-2.43h-7.29c-2.08.23-3.72.92-4.91,2.08-1.19,1.16-1.79,2.66-1.79,4.51v5.44c0,2.24.75,3.99,2.25,5.26,1.5,1.27,3.6,1.91,6.3,1.91h6.82c2.39,0,4.26-.56,5.61-1.68,1.35-1.12,2.02-2.64,2.02-4.57v-5.43Z" fill="#639"/>
    <path d="M1815.98,590.15c-2.43,4.32-5.84,7.67-10.23,10.06-4.39,2.39-9.48,3.58-15.26,3.58h-52.73v-15.96h52.27c4.63,0,8.37-1.17,11.22-3.53,2.85-2.35,4.28-5.42,4.28-9.19v-12.26c0-3.85-1.43-6.98-4.28-9.37-2.85-2.39-6.59-3.58-11.22-3.58h-52.27v-15.96h52.73c5.78,0,10.87,1.2,15.26,3.58,4.39,2.39,7.81,5.78,10.23,10.18,2.43,4.39,3.64,9.44,3.64,15.15v12.26c0,5.71-1.21,10.72-3.64,15.03Z" fill="#639"/>
    <path d="M1816.73,507.36c-1.31,1.77-3.66,3.01-7.05,3.7l-71.93,14.34v-16.19l57.47-9.94v-.23l-53.19-16.77v-5.78c0-1.93.5-3.6,1.5-5.03,1-1.43,2.82-2.52,5.44-3.3l46.14-14.11v-.23l-57.36-9.95v-16.19l71.93,14.46c3.08.62,5.36,1.75,6.82,3.41,1.47,1.66,2.2,3.91,2.2,6.77v6.71l-55.51,17.23v.23l55.51,17.58v6.71c0,2.62-.65,4.82-1.97,6.59Z" fill="#639"/>
    <path d="M1815.69,415.54c-2,2.08-4.63,3.12-7.86,3.12h-70.08v-40.24c0-7.32,1.73-13.2,5.2-17.63,3.47-4.43,8.13-6.65,13.99-6.65h5.78c2.54,0,4.97.64,7.29,1.91s4.2,3.06,5.67,5.38h.12c1.31-3.7,3.43-6.69,6.36-8.96,2.93-2.27,6.21-3.41,9.83-3.41h6.01c6.32,0,11.35,2.29,15.09,6.88,3.74,4.59,5.61,10.77,5.61,18.56v32.96c0,3.32-1,6.01-3.01,8.09ZM1771.29,378.42c0-2.47-.79-4.47-2.37-6.01-1.58-1.54-3.68-2.31-6.3-2.31h-3.93c-2.16,0-3.87.81-5.15,2.43-1.27,1.62-1.91,3.78-1.91,6.48v23.71h19.66v-24.28ZM1804.82,375.65c0-3.39-.67-6.01-2.02-7.86-1.35-1.85-3.26-2.78-5.72-2.78h-5.09c-2.23,0-4.05.81-5.43,2.43-1.39,1.62-2.08,3.78-2.08,6.48v28.79h20.35v-27.06Z" fill="#639"/>
  </g>
  <g>
    <circle cx="847.57" cy="549.1" r="58.42"/>
    <rect x="789.15" y="549.1" width="116.85" height="116.85"/>
    <circle cx="863.17" cy="540.95" r="26.66" fill="#fff"/>
    <path d="M801.88,528.58v41.04c0,4.16-3.38,7.55-7.55,7.55h-32.42c-15.51,0-28.07-12.57-28.07-28.07s12.56-28.07,28.07-28.07h32.42c4.17,0,7.55,3.38,7.55,7.54Z" fill="#4d4d4d"/>
    <g>
      <ellipse cx="908.86" cy="509.26" rx="8.39" ry="40.46" transform="translate(216.09 1287.35) rotate(-77.58)" fill="#57358e"/>
      <path d="M908.3,517.49l-104.92-12.58c3.47-28.97,29.78-49.64,58.75-46.17,28.97,3.47,49.64,29.78,46.17,58.75Z" fill="#33006f"/>
      <g id="CDcPmI.tif">
        <polygon points="843.29 473.03 842.76 477.98 839.13 477.59 841.21 492.49 848.5 473.61 853.58 474.14 856.34 494.16 861.81 480.02 858.31 479.65 858.84 474.7 869.77 475.87 869.24 480.82 866.03 480.48 857.67 502.5 849.77 501.65 847.73 487.06 842.41 500.87 834.59 499.99 831.36 476.76 828.12 476.41 828.65 471.46 843.29 473.03" fill="#e8d3a2"/>
      </g>
    </g>
  </g>
  <path d="M847.17,406.23c33.73,0,65.45,13.14,89.3,36.99,23.85,23.85,36.99,55.57,36.99,89.3s-13.14,65.45-36.99,89.3c-23.85,23.85-55.57,36.99-89.3,36.99s-65.45-13.14-89.3-36.99c-23.85-23.85-36.99-55.57-36.99-89.3s13.14-65.45,36.99-89.3c23.85-23.85,55.57-36.99,89.3-36.99M847.17,346.03c-102.99,0-186.49,83.49-186.49,186.49s83.49,186.49,186.49,186.49,186.49-83.49,186.49-186.49-83.49-186.49-186.49-186.49h0Z" fill="#639"/>
</svg>