<?xml version="1.0" encoding="UTF-8"?>
<svg id="Layer_1" data-name="Layer 1" xmlns="http://www.w3.org/2000/svg" viewBox="0 0 1920 1080">
  <defs>
    <style>
      .cls-1 {
        fill: #639;
      }
    </style>
  </defs>
  <path class="cls-1" d="M960,413.71c33.73,0,65.45,13.14,89.3,36.99,23.85,23.85,36.99,55.57,36.99,89.3s-13.14,65.45-36.99,89.3c-23.85,23.85-55.57,36.99-89.3,36.99s-65.45-13.14-89.3-36.99c-23.85-23.85-36.99-55.57-36.99-89.3s13.14-65.45,36.99-89.3c23.85-23.85,55.57-36.99,89.3-36.99M960,353.51c-102.99,0-186.49,83.49-186.49,186.49s83.49,186.49,186.49,186.49,186.49-83.49,186.49-186.49-83.49-186.49-186.49-186.49h0Z"/>
</svg>